# Blender 5.0.0
# www.blender.org
o Parallelogram
v 33.375000 -6.500003 -11.125000
v 33.375000 6.499997 -11.125000
v -11.125001 -6.499999 -11.125000
v -11.124999 6.500001 -11.125000
v 11.125002 16.999998 11.125000
v 11.124998 -17.000002 11.125000
v -33.375000 17.000004 11.125000
v -33.375000 -16.999996 11.125000
vn -0.0000 -0.0000 -1.0000
vn -0.0000 -0.9044 -0.4268
vn -0.0000 0.9044 -0.4268
vn 0.7071 -0.0000 0.7071
vn -0.0000 -0.0000 1.0000
vn -0.7071 -0.0000 -0.7071
s 0
f 3//1 2//1 1//1
f 3//2 6//2 8//2
f 4//3 5//3 2//3
f 2//4 6//4 1//4
f 5//5 8//5 6//5
f 7//6 3//6 8//6
f 3//1 4//1 2//1
f 3//2 1//2 6//2
f 4//3 7//3 5//3
f 2//4 5//4 6//4
f 5//5 7//5 8//5
f 7//6 4//6 3//6
