# Blender 5.0.0
# www.blender.org
o Small_Triangle_1
v 15.733127 6.500000 15.733125
v 15.733127 -6.500000 15.733125
v -15.733127 6.500000 -15.733125
v -15.733127 -6.500000 -15.733125
v -15.733125 -17.000000 15.733127
v -15.733125 17.000000 15.733127
vn 0.7071 -0.0000 -0.7071
vn 0.3018 0.9044 -0.3018
vn 0.3018 -0.9044 -0.3018
vn -0.0000 -0.0000 1.0000
vn -1.0000 -0.0000 -0.0000
s 0
f 1//1 4//1 3//1
f 3//2 6//2 1//2
f 4//3 2//3 5//3
f 6//4 2//4 1//4
f 5//5 3//5 4//5
f 1//1 2//1 4//1
f 6//4 5//4 2//4
f 5//5 6//5 3//5
