# Blender 5.0.0
# www.blender.org
o Square
v -15.733130 -27.500000 15.733123
v -15.733130 27.500000 15.733123
v -15.733123 -17.000000 -15.733130
v -15.733123 17.000000 -15.733130
v 15.733130 6.500000 -15.733123
v 15.733130 -6.500000 -15.733123
v 15.733123 -17.000000 15.733130
v 15.733123 17.000000 15.733130
vn 0.3018 -0.9044 -0.3018
vn 0.3018 0.9044 -0.3018
vn -1.0000 -0.0000 -0.0000
vn -0.0000 -0.0000 -1.0000
vn 1.0000 -0.0000 -0.0000
vn -0.0000 -0.0000 1.0000
s 0
f 3//1 7//1 1//1
f 8//2 4//2 2//2
f 2//3 3//3 1//3
f 3//4 5//4 6//4
f 8//5 6//5 5//5
f 2//6 7//6 8//6
f 3//1 6//1 7//1
f 8//2 5//2 4//2
f 2//3 4//3 3//3
f 3//4 4//4 5//4
f 8//5 7//5 6//5
f 2//6 1//6 7//6
